<?xml version="1.0" encoding="UTF-8"?>
<svg id="Capa_1" data-name="Capa 1" xmlns="http://www.w3.org/2000/svg" viewBox="0 0 99.21 51.23">
  <defs>
    <style>
      .cls-1 {
        fill: none;
        stroke: #296d58;
        stroke-linejoin: round;
        stroke-width: .5px;
      }

      .cls-2 {
        fill: #296d58;
      }
    </style>
  </defs>
  <g>
    <path class="cls-2" d="M46.35,24.27c-.89.23-.47-1.52-.38-2,.85-4.81,6.61-11.94,10.92-6.17,3.43,4.59,1.1,15.39-3.08,19.23,1.77,1.15,5.14,2.18,7.21,1.75.97-.2,1.5-.89,2.1-1.13.54-.21.41.48.25.75-1.53,2.5-8.3.43-10.4-.7-6.2,4.2-12.95.28-13.57-6.88s2.74-12.82,9.06-15.76c.45.37.42.38,0,.74-1.14.98-2.89,1.66-4.1,2.86-4.31,4.25-6,11.86-2.36,17.01,2.67-2.91,7.67-.28,10.69.99,4.71-2.99,6.75-14.03,3.7-18.36-4.17-5.93-10.37,3.31-10.05,7.69ZM51.82,35.94c.52-.68-3.1-1.94-3.53-2.06-1.25-.34-7.27-1.21-5.09,1.49,1.71,2.12,6.41,1.82,8.62.57Z"/>
    <path class="cls-2" d="M63.24,31.35c.13.98.91,3.12,2.11,3.13,1.24,0,1.78-2.12,2.12-3.12.66-1.98.83-4.26,1.85-6.09.78,0,.89,8.6,3.09,9.33,1.65.54,3.73-2.12,3.98-3.51.38-2.17.56-5.18.75-7.44.08-.94.09-8.31.87-8.31l.35,1.08-1.22,14.07c.57.14.41-.11.57-.31.98-1.25,1.53-2.5,2.93-3.51,2.33-1.69,5.58-1.35,6.52,1.64,1.67,5.32-2.96,8.68-7.95,6.95-1.14-.4-1.85-1.35-3.06-.79l-.13-1c-1.07.02-2.91,4.48-5.23.26-1.01-1.84-.72-3.73-1.32-5.38-.13-.35.07-.42-.52-.34-.35,1.44-1.44,6.48-2.74,7.08-3.28,1.5-3.7-5.24-3.72-7.07-.31.02-.4.35-.54.57-.16.25-1.68,3.95-2.19,3.4l2.52-5.8.58-.66c.07-.03.37.58.37.62,0,1.56-.19,3.76,0,5.22ZM83.05,26.31c-2.49.37-5,4.1-5.92,6.27-.08.2-.4.36-.12.64,2.47,2.04,6.68,2.73,8.83-.13,1.93-2.57.76-7.3-2.79-6.78Z"/>
    <path class="cls-2" d="M96.45,26.09c1.92,1.57,2.26,5.38,1.06,7.49-1.86,3.29-7.05,2.54-8.38-.8-1.9-4.8,3.17-10.06,7.31-6.69ZM93.24,25.81c-4.73.46-5.2,8.28-.51,9.08,6.7,1.14,5.89-9.6.51-9.08Z"/>
  </g>
  <path class="cls-1" d="M1,31.93L2.33,6.88,12.41,1.11l16.68,2.03-8.75,46.99L1,31.93ZM1,31.93l15.16,5.39,4.19,12.81-.7-23.65L1,31.93l6.98-15.73L12.41,1.11M2.33,6.88l5.64,9.32,11.67,10.27L29.09,3.14,7.97,16.2M16.15,37.32l3.49-10.84"/>
</svg>